<svg width="42" height="48" viewBox="0 0 42 48" fill="none" xmlns="http://www.w3.org/2000/svg">
<g clip-path="url(#clip0_99_2)">
<mask id="mask0_99_2" style="mask-type:luminance" maskUnits="userSpaceOnUse" x="0" y="0" width="42" height="48">
<path d="M37 0H5C2.23858 0 0 2.23858 0 5V43C0 45.7614 2.23858 48 5 48H37C39.7614 48 42 45.7614 42 43V5C42 2.23858 39.7614 0 37 0Z" fill="white"/>
</mask>
<g mask="url(#mask0_99_2)">
<path d="M21 1.5L1.5 12.5V35L21 46.5L40.5 35.5V13L21 1.5Z" fill="#0A192F" stroke="#6A92FF" stroke-width="2.5" stroke-linecap="round" stroke-linejoin="round"/>
<path d="M22.9688 31.2031C22.9688 31.9115 22.9219 32.5156 22.8281 33.0156C22.7448 33.5156 22.625 33.9219 22.4688 34.2344C22.3125 34.5469 22.1198 34.776 21.8906 34.9219C21.6719 35.0677 21.4323 35.1406 21.1719 35.1406C20.974 35.1406 20.7552 35.0729 20.5156 34.9375C20.276 34.8021 20.0469 34.6354 19.8281 34.4375C19.6198 34.2396 19.4427 34.0365 19.2969 33.8281C19.1615 33.6198 19.0938 33.4375 19.0938 33.2812C19.0938 33.1771 19.1042 33.1094 19.125 33.0781C19.1562 33.0573 19.1927 33.0469 19.2344 33.0469C19.2865 33.0573 19.3438 33.0729 19.4062 33.0938C19.4792 33.1146 19.5573 33.125 19.6406 33.125C19.9323 33.125 20.1406 32.9427 20.2656 32.5781C20.401 32.2031 20.4688 31.6094 20.4688 30.7969V13.125C19.4792 13.2083 18.526 13.3854 17.6094 13.6562C16.6927 13.9167 15.8854 14.3125 15.1875 14.8438C14.4896 15.375 13.9323 16.0677 13.5156 16.9219C13.099 17.7656 12.8906 18.8073 12.8906 20.0469C12.8906 20.599 12.9427 21.099 13.0469 21.5469C13.1615 21.9844 13.3073 22.3802 13.4844 22.7344C13.6615 23.0885 13.8542 23.401 14.0625 23.6719C14.2812 23.9427 14.4948 24.1823 14.7031 24.3906C14.8802 24.3385 15.0052 24.3594 15.0781 24.4531C15.151 24.5469 15.1875 24.6771 15.1875 24.8438C15.1875 25.0521 15.1406 25.2708 15.0469 25.5C14.9635 25.7188 14.849 25.9219 14.7031 26.1094C14.5573 26.2865 14.3906 26.4375 14.2031 26.5625C14.026 26.6771 13.8438 26.7344 13.6562 26.7344C13.5729 26.7344 13.4896 26.724 13.4062 26.7031C13.3333 26.6823 13.2552 26.6354 13.1719 26.5625C12.9427 26.3958 12.6667 26.125 12.3438 25.75C12.0208 25.3646 11.7135 24.8906 11.4219 24.3281C11.1302 23.7656 10.8802 23.125 10.6719 22.4062C10.4635 21.6771 10.3594 20.8906 10.3594 20.0469C10.3594 18.5052 10.6458 17.1458 11.2188 15.9688C11.7917 14.7917 12.5885 13.8073 13.6094 13.0156C14.6302 12.2135 15.8385 11.6094 17.2344 11.2031C18.6406 10.7969 20.1771 10.5938 21.8438 10.5938C22.2292 10.5938 22.6927 10.599 23.2344 10.6094C23.7865 10.6094 24.3333 10.6146 24.875 10.625C25.4167 10.6354 25.901 10.6458 26.3281 10.6562C26.7656 10.6562 27.0625 10.6562 27.2188 10.6562C27.3542 10.6562 27.4635 10.6458 27.5469 10.625C27.6406 10.5938 27.7135 10.5625 27.7656 10.5312C27.8281 10.5 27.875 10.474 27.9062 10.4531C27.9375 10.4219 27.9635 10.4062 27.9844 10.4062C28.0365 10.4062 28.0833 10.4427 28.125 10.5156C28.1771 10.5781 28.2188 10.6615 28.25 10.7656C28.2917 10.8594 28.3229 10.9688 28.3438 11.0938C28.3646 11.2188 28.375 11.3438 28.375 11.4688C28.375 11.6562 28.349 11.8542 28.2969 12.0625C28.2448 12.2604 28.1667 12.4427 28.0625 12.6094C27.9583 12.7656 27.8281 12.8958 27.6719 13C27.5156 13.1042 27.3333 13.1562 27.125 13.1562C27.0104 13.1562 26.7969 13.1562 26.4844 13.1562C26.1823 13.1458 25.8333 13.1354 25.4375 13.125C25.0417 13.1146 24.625 13.1042 24.1875 13.0938C23.75 13.0833 23.3438 13.0729 22.9688 13.0625V31.2031Z" fill="#6A92FF"/>
</g>
</g>
<defs>
<clipPath id="clip0_99_2">
<rect width="42" height="48" fill="white"/>
</clipPath>
</defs>
</svg>
